<svg width="50" height="49" viewBox="0 0 50 49" fill="none" xmlns="http://www.w3.org/2000/svg">
<g clip-path="url(#clip0_6038_3399)">
<path d="M24.6758 2.99051C25.751 2.30597 26.7496 1.64961 27.7925 0.904663C30.9696 5.52333 30.7723 12.1312 27.6435 16.8022C26.7979 17.9941 25.7228 19.4116 24.6638 20.2813C23.4356 19.4236 22.4289 18.0465 21.535 16.9029C18.5552 12.1836 18.2572 5.72467 21.5833 0.90869C22.1994 1.33552 23.7376 2.36234 24.6758 2.99454V2.99051Z" fill="#D81C3F"/>
<path d="M42.8968 16.2305C43.8834 17.0358 44.8216 17.7767 45.8565 18.5378C42.4659 23.0075 36.1319 24.888 30.7159 23.382C29.3186 22.9551 27.6395 22.3793 26.4798 21.6424C26.9066 20.2049 27.9012 18.8197 28.7066 17.6117C32.2541 13.303 38.2902 10.9917 43.9115 12.6427C43.6981 13.3594 43.2069 15.1433 42.9008 16.2345L42.8968 16.2305Z" fill="#D81C3F"/>
<path d="M36.0031 37.7131C35.544 38.901 35.1293 40.0244 34.7306 41.2405C29.4314 39.4083 25.6704 33.9722 25.4168 28.359C25.3886 26.8973 25.4168 25.1215 25.751 23.7926C27.2489 23.7524 28.8757 24.2638 30.273 24.6544C35.4715 26.6838 39.5466 31.7052 39.7278 37.556C38.9788 37.5762 37.1305 37.6648 35.999 37.7131H36.0031Z" fill="#D81C3F"/>
<path d="M13.3688 37.7976C12.0963 37.7251 10.9004 37.6768 9.61987 37.6728C9.73665 32.0675 13.7553 26.8167 19.0223 24.8557C20.4035 24.3805 22.1028 23.857 23.4719 23.7725C23.9712 25.1858 23.9832 26.8932 24.0396 28.3428C23.7054 33.9158 20.178 39.3318 14.6613 41.3008C14.4117 40.5962 13.7594 38.8647 13.3688 37.8016V37.7976Z" fill="#D81C3F"/>
<path d="M6.30586 16.3996C5.97567 15.1714 5.6495 14.0198 5.25085 12.7997C10.6104 11.1568 16.8559 13.3272 20.3672 17.7163C21.2491 18.8801 22.2799 20.3297 22.7873 21.6021C21.5994 22.5162 19.9847 23.0639 18.6237 23.5712C13.2278 24.9967 6.97832 23.3417 3.38245 18.719C3.97438 18.26 5.41595 17.1003 6.30183 16.3956L6.30586 16.3996Z" fill="#D81C3F"/>
<path d="M6.5515 46.2014C6.16494 45.8148 5.35153 45.7504 3.68044 45.7504C2.34759 45.7504 1.84827 45.7504 1.64291 45.545C1.54224 45.4444 1.52613 45.3034 1.52613 45.1705C1.52613 45.0135 1.59861 44.6471 2.27511 44.6471H4.17975C4.62269 44.6471 4.85625 44.6994 4.9851 44.8283C5.08577 44.9289 5.10993 44.9289 5.11396 45.0779H6.63606V45.0054C6.63606 44.5222 6.58774 44.3088 6.33808 44.0592C6.04413 43.7652 5.48039 43.6283 4.56632 43.6283H2.16638C1.22413 43.6283 0.616091 43.7773 0.314086 44.0793C0.0281872 44.3652 0.00402674 44.788 0.00402674 45.2712C0.00402674 45.8068 0.0483209 46.1651 0.277845 46.3906C0.587904 46.7007 1.24426 46.8094 2.7865 46.8094C4.518 46.8094 4.97705 46.8336 5.18644 47.0389C5.29113 47.1436 5.30321 47.2805 5.30321 47.4175C5.30321 47.5745 5.25892 47.6993 5.1663 47.7879C4.99718 47.957 4.71531 47.9691 4.46565 47.9691H2.35967C1.88049 47.9691 1.56237 48.0738 1.52211 47.502H0V47.7758C0 48.2309 0.092615 48.3879 0.297979 48.5892C0.583877 48.8751 1.10333 48.9919 2.0939 48.9919H4.17975C6.47499 48.9919 6.87767 48.7503 6.87767 47.3852C6.87767 46.7732 6.78103 46.4188 6.55553 46.1933L6.5515 46.2014Z" fill="#D81C3F"/>
<path d="M10.8923 43.7532L7.96487 49H9.6561L10.1594 48.0376H13.7634L14.2989 49H15.9821L13.0104 43.7532H10.8883H10.8923ZM10.699 47.0631L11.9473 44.7035L13.2318 47.0631H10.699Z" fill="#D81C3F"/>
<path d="M21.1847 46.3142L24.1121 43.7532H22.0746L19.9042 45.7504H18.9619V43.7532H17.4398V49H18.9619V46.9061H19.8559L22.3363 49H24.4544L21.1847 46.3142Z" fill="#D81C3F"/>
<path d="M32.4595 43.6927H30.9374V46.737C30.9374 47.1235 30.8569 47.3812 30.6918 47.5504C30.5227 47.7195 30.2649 47.8 29.8784 47.8H28.1751C27.7885 47.8 27.5308 47.7195 27.3617 47.5504C27.1925 47.3812 27.116 47.1235 27.116 46.737V43.6927H25.598V47.0953C25.598 47.7114 25.747 48.1624 26.057 48.4725C26.4114 48.8268 26.9832 49 27.7966 49H30.2609C31.783 49 32.4636 48.4121 32.4636 47.0953V43.6927H32.4595Z" fill="#D81C3F"/>
<path d="M38.8218 47.7678C38.9547 47.9007 39.0151 48.1101 39.0151 48.4443V49H40.5332V48.1745C40.5332 47.3772 40.1909 47.1558 39.6795 47.0672L39.5949 47.0511V46.8739L39.6714 46.8578C40.4123 46.6887 40.5533 46.29 40.5533 45.6135V45.2713C40.5533 44.7317 40.4405 44.3693 40.203 44.1277C39.9533 43.878 39.5506 43.7532 38.9748 43.7532H33.885V49H35.4071V47.5826H38.2097C38.5077 47.5826 38.6929 47.639 38.8218 47.7638V47.7678ZM35.4031 46.4269V44.9088H38.1896C38.5198 44.9088 38.7694 44.9411 38.9225 45.0941C39.0272 45.1988 39.0795 45.3518 39.0795 45.5733V45.7585C39.0795 45.98 39.0272 46.137 38.9184 46.2457C38.7976 46.3665 38.6164 46.4229 38.3466 46.4229H35.4031V46.4269Z" fill="#D81C3F"/>
<path d="M44.9062 43.7532L41.9828 49H43.674L44.1774 48.0376H47.7813L48.3168 49H50L47.0283 43.7532H44.9062ZM44.7129 47.0631L45.9612 44.7035L47.2457 47.0631H44.7129Z" fill="#D81C3F"/>
<path d="M40.9881 37.5278C40.9881 36.6057 41.6848 35.9091 42.5747 35.9091C43.4565 35.9091 44.1531 36.6057 44.1531 37.5278C44.1531 38.466 43.4605 39.1546 42.5787 39.1546C41.6888 39.1546 40.9922 38.466 40.9922 37.5278H40.9881ZM42.5747 39.4808C43.6337 39.4808 44.5397 38.6553 44.5397 37.5278C44.5397 36.4084 43.6337 35.5869 42.5706 35.5869C41.4995 35.5869 40.5935 36.4124 40.5935 37.5318C40.5935 38.6593 41.4995 39.4848 42.5706 39.4848L42.5747 39.4808ZM42.1639 37.6808H42.5545L43.1465 38.6553H43.529L42.8887 37.6647C43.2189 37.6244 43.4726 37.4473 43.4686 37.0446C43.4686 36.6017 43.2069 36.4043 42.6753 36.4084H41.8217V38.6553H42.1599V37.6808H42.1639ZM42.1639 37.3909V36.6943H42.627C42.8646 36.6943 43.1183 36.7466 43.1183 37.0245C43.1183 37.3708 42.8606 37.3909 42.5706 37.3909H42.1639Z" fill="#D81C3F"/>
</g>
<defs>
<clipPath id="clip0_6038_3399">
<rect width="50" height="48.0954" fill="white" transform="translate(0 0.904663)"/>
</clipPath>
</defs>
</svg>
