<svg width="25" height="24" viewBox="0 0 25 24" fill="none" xmlns="http://www.w3.org/2000/svg">
<g clip-path="url(#clip0_6038_3473)">
<path d="M24.264 12C24.264 5.37264 18.8914 0 12.264 0C5.63668 0 0.264038 5.37264 0.264038 12C0.264038 17.6275 4.1386 22.3498 9.36532 23.6467V15.6672H6.89092V12H9.36532V10.4198C9.36532 6.33552 11.2138 4.4424 15.2237 4.4424C15.984 4.4424 17.2959 4.59168 17.8325 4.74048V8.06448C17.5493 8.03472 17.0573 8.01984 16.4463 8.01984C14.4788 8.01984 13.7184 8.76528 13.7184 10.703V12H17.6381L16.9647 15.6672H13.7184V23.9122C19.6604 23.1946 24.2645 18.1354 24.2645 12H24.264Z" fill="#58595B"/>
</g>
<defs>
<clipPath id="clip0_6038_3473">
<rect width="24" height="24" fill="white" transform="translate(0.264038)"/>
</clipPath>
</defs>
</svg>
