<svg width="25" height="24" viewBox="0 0 25 24" fill="none" xmlns="http://www.w3.org/2000/svg">
<g clip-path="url(#clip0_6038_3479)">
<path d="M6.32251 7.72095H1.50447C1.29064 7.72095 1.11737 7.89429 1.11737 8.10804V23.5863C1.11737 23.8002 1.29064 23.9734 1.50447 23.9734H6.32251C6.53634 23.9734 6.7096 23.8002 6.7096 23.5863V8.10804C6.7096 7.89429 6.53634 7.72095 6.32251 7.72095Z" fill="#58595B"/>
<path d="M3.9152 0.0263672C2.16212 0.0263672 0.735901 1.45104 0.735901 3.20218C0.735901 4.95411 2.16212 6.37932 3.9152 6.37932C5.66689 6.37932 7.09195 4.95403 7.09195 3.20218C7.09203 1.45104 5.66689 0.0263672 3.9152 0.0263672Z" fill="#58595B"/>
<path d="M18.5775 7.33618C16.6424 7.33618 15.2119 8.16805 14.3443 9.11326V8.10798C14.3443 7.89422 14.171 7.72088 13.9572 7.72088H9.34309C9.12926 7.72088 8.95599 7.89422 8.95599 8.10798V23.5863C8.95599 23.8001 9.12926 23.9734 9.34309 23.9734H14.1506C14.3644 23.9734 14.5377 23.8001 14.5377 23.5863V15.9281C14.5377 13.3475 15.2387 12.3421 17.0376 12.3421C18.9967 12.3421 19.1524 13.9538 19.1524 16.0609V23.5863C19.1524 23.8002 19.3257 23.9734 19.5395 23.9734H24.3488C24.5627 23.9734 24.7359 23.8002 24.7359 23.5863V15.0962C24.7359 11.2589 24.0042 7.33618 18.5775 7.33618Z" fill="#58595B"/>
</g>
<defs>
<clipPath id="clip0_6038_3479">
<rect width="24" height="24" fill="white" transform="translate(0.735901)"/>
</clipPath>
</defs>
</svg>
